<svg xmlns="http://www.w3.org/2000/svg" width="97" height="97" viewBox="0 0 97 97" fill="none">
  <rect width="97" height="97" rx="15" fill="#F8F8F8"/>
  <path d="M82 48.2044C82 29.8611 67.2181 15 49 15C30.7696 15 16 29.8611 16 48.2044C16 64.7734 28.0636 78.5117 43.8438 81V57.8046H35.4638V48.2065H43.8438V40.887C43.8438 32.5672 48.7628 27.9725 56.3033 27.9725C59.9147 27.9725 63.6953 28.62 63.6953 28.62V36.7904H59.527C55.435 36.7904 54.1562 39.3534 54.1562 41.9786V48.2044H63.3076L61.837 57.8026H54.1562V80.9979C69.9241 78.5097 82 64.7713 82 48.2023V48.2044Z" fill="#D9D9D9"/>
</svg>