<svg xmlns="http://www.w3.org/2000/svg" width="97" height="97" viewBox="0 0 97 97" fill="none">
  <rect width="97" height="97" rx="15" fill="#F8F8F8"/>
  <path d="M79.0009 41.7678H76.52V41.64H48.8V53.96H66.2066C63.6672 61.1318 56.8434 66.28 48.8 66.28C38.5944 66.28 30.32 58.0056 30.32 47.8C30.32 37.5944 38.5944 29.32 48.8 29.32C53.5109 29.32 57.7967 31.0972 61.0599 34.0001L69.7717 25.2883C64.2708 20.1616 56.9127 17 48.8 17C31.7907 17 18 30.7907 18 47.8C18 64.8093 31.7907 78.6 48.8 78.6C65.8093 78.6 79.6 64.8093 79.6 47.8C79.6 45.7349 79.3875 43.719 79.0009 41.7678Z" fill="#D9D9D9"/>
  <path d="M21.5513 33.4641L31.6706 40.8854C34.4087 34.1063 41.04 29.32 48.8 29.32C53.5109 29.32 57.7967 31.0972 61.06 34.0001L69.7717 25.2883C64.2709 20.1616 56.9127 17 48.8 17C36.9697 17 26.7103 23.679 21.5513 33.4641Z" fill="#D9D9D9"/>
  <path d="M48.7999 78.6C56.7555 78.6 63.9843 75.5554 69.4497 70.6043L59.9171 62.5378C56.8248 64.8801 52.981 66.28 48.7999 66.28C40.7888 66.28 33.9866 61.1718 31.4241 54.0432L21.3802 61.7817C26.4776 71.7562 36.8295 78.6 48.7999 78.6Z" fill="#D9D9D9"/>
  <path d="M79.0009 41.7678H76.52V41.64H48.8V53.96H66.2066C64.9869 57.405 62.7709 60.3757 59.9126 62.5394C59.9142 62.5378 59.9157 62.5378 59.9172 62.5363L69.4498 70.6028C68.7753 71.2157 79.6 63.2 79.6 47.8C79.6 45.7349 79.3875 43.719 79.0009 41.7678Z" fill="#D9D9D9"/>
</svg>