<svg xmlns="http://www.w3.org/2000/svg" width="97" height="97" viewBox="0 0 97 97" fill="none">
  <rect width="97" height="97" rx="15" fill="#F8F8F8"/>
  <path d="M34.0873 74.9988H22.892V38.9466H34.0873V74.9988ZM28.4836 34.0287C24.9037 34.0287 22 31.0635 22 27.4836C22 25.7641 22.6831 24.1149 23.899 22.899C25.1149 21.6831 26.7641 21 28.4836 21C30.2032 21 31.8523 21.6831 33.0682 22.899C34.2841 24.1149 34.9672 25.7641 34.9672 27.4836C34.9672 31.0635 32.0623 34.0287 28.4836 34.0287ZM75.9879 74.9988H64.8167V57.4488C64.8167 53.2662 64.7323 47.9024 58.996 47.9024C53.1754 47.9024 52.2834 52.4466 52.2834 57.1475V74.9988H41.1001V38.9466H51.8374V43.8644H51.9941C53.4888 41.0318 57.1398 38.0425 62.5868 38.0425C73.9171 38.0425 76 45.5037 76 55.1948V74.9988H75.9879Z" fill="#D9D9D9"/>
</svg>