<svg xmlns="http://www.w3.org/2000/svg" width="97" height="97" viewBox="0 0 97 97" fill="none">
  <rect width="97" height="97" rx="15" fill="#F8F8F8"/>
  <path d="M60.0563 19H50.1123V58.5848C50.1123 63.3014 46.2877 67.1756 41.5282 67.1756C36.7686 67.1756 32.944 63.3014 32.944 58.5848C32.944 53.9526 36.6836 50.1624 41.2732 49.9941V40.0558C31.1592 40.2242 23 48.3938 23 58.5848C23 68.8601 31.3292 77.1139 41.6132 77.1139C51.8971 77.1139 60.2262 68.7758 60.2262 58.5848V38.287C63.9659 40.9822 68.5554 42.5825 73.4 42.6667V32.7284C65.9208 32.4757 60.0563 26.4116 60.0563 19Z" fill="#D9D9D9"/>
</svg>