<svg width="22" height="18" viewBox="0 0 22 18" fill="none" xmlns="http://www.w3.org/2000/svg">
<path fill-rule="evenodd" clip-rule="evenodd" d="M13.5619 18C13.4882 18 13.4123 17.9966 13.3364 17.9888C12.3684 17.8909 11.6094 17.1923 11.4004 16.2081L8.4491 2.26849L5.4098 9.4475C5.2349 9.85921 4.8378 10.1258 4.4 10.1258H1.1C0.4917 10.1258 0 9.62186 0 9.00092C0 8.37886 0.4917 7.87604 1.1 7.87604H3.6784L6.435 1.36409C6.8255 0.44618 7.6857 -0.0881398 8.6636 0.0119749C9.6316 0.10984 10.3906 0.808393 10.5996 1.79267L13.5509 15.7322L16.5902 8.55322C16.7651 8.14151 17.1611 7.87604 17.6 7.87604H20.9C21.5083 7.87604 22 8.37886 22 9.00092C22 9.62186 21.5083 10.1258 20.9 10.1258H18.3216L15.565 16.6366C15.2053 17.4837 14.4342 18 13.5619 18Z" fill="#D9D9D9"/>
</svg>
