<svg width="20" height="24" viewBox="0 0 20 24" fill="none" xmlns="http://www.w3.org/2000/svg">
<path fill-rule="evenodd" clip-rule="evenodd" d="M4.65386 8.68148C1.94277 11.6145 2.00014 16.264 4.82597 19.1437C6.20553 20.5535 8.03873 21.3311 9.99199 21.3324H9.99867C11.9559 21.3324 13.7958 20.5548 15.182 19.1437C18.0586 16.212 18.0532 11.4437 15.17 8.51609L11.1861 4.44671C10.7832 7.75716 9.54103 10.6621 7.32893 10.6621C6.65116 10.6621 5.54644 10.3607 4.65386 8.68148ZM9.99867 24H9.98933C7.31292 23.9973 4.80196 22.937 2.9194 21.0097C-0.968459 17.0483 -0.973796 10.6021 2.90739 6.64746L4.21891 5.32167C4.5578 4.98289 5.05012 4.85218 5.51575 4.97355C5.97872 5.09893 6.33895 5.46305 6.45903 5.92721C6.7659 7.11295 7.13147 7.69581 7.33293 7.91722C7.80657 7.41838 8.66313 5.40303 8.66313 1.99254C8.66313 1.79648 8.66313 1.61108 8.65246 1.42569C8.62711 1.03222 8.77787 0.646756 9.06339 0.374664C9.59307 -0.128174 10.4416 -0.128174 10.95 0.39467L17.0739 6.64879C20.9698 10.6021 20.9765 17.0483 17.0873 21.011C15.194 22.9396 12.6777 24 9.99867 24Z" fill="#D9D9D9"/>
</svg>
