<svg width="25" height="22" viewBox="0 0 25 22" fill="none" xmlns="http://www.w3.org/2000/svg">
<path d="M12.835 15.9307H17.4786M5.09571 2H20.5743C21.3953 2 22.1827 2.32615 22.7633 2.90671C23.3438 3.48727 23.67 4.27467 23.67 5.09571V17.4785C23.67 18.2996 23.3438 19.087 22.7633 19.6675C22.1827 20.2481 21.3953 20.5742 20.5743 20.5742H5.09571C4.27468 20.5742 3.48727 20.2481 2.90671 19.6675C2.32615 19.087 2 18.2996 2 17.4785V5.09571C2 4.27467 2.32615 3.48727 2.90671 2.90671C3.48727 2.32615 4.27468 2 5.09571 2Z" stroke="#D9D9D9" stroke-width="2.3" stroke-linecap="round" stroke-linejoin="round"/>
<path d="M6.64355 14.3828L9.73927 11.2871L6.64355 8.19141" stroke="#D9D9D9" stroke-width="2.3" stroke-linecap="round" stroke-linejoin="round"/>
</svg>
