<svg width="320" height="132" viewBox="0 0 320 132" fill="none" xmlns="http://www.w3.org/2000/svg">
<rect width="320" height="132" fill="white"/>
<path d="M21.001 45.6979H61.4163V86.4979H21.001V45.6979Z" fill="white" fill-opacity="0.01"/>
<path d="M38.6829 77.9979C46.5881 77.9979 52.9966 71.5283 52.9966 63.5479C52.9966 55.5674 46.5881 49.0979 38.6829 49.0979C30.7777 49.0979 24.3691 55.5674 24.3691 63.5479C24.3691 71.5283 30.7777 77.9979 38.6829 77.9979Z" fill="#AA00FF" stroke="black" stroke-width="4.2786" stroke-linejoin="round"/>
<path d="M43.4469 57.8895C42.2279 56.659 40.544 55.8979 38.6839 55.8979C36.8239 55.8979 35.1399 56.659 33.9209 57.8895" stroke="white" stroke-width="4.2786" stroke-linecap="round" stroke-linejoin="round"/>
<path d="M48.9736 73.9364L56.1181 81.1489" stroke="black" stroke-width="4.2786" stroke-linecap="round" stroke-linejoin="round"/>
<path d="M80.6642 68.7504V81H74.4512V50.2437H85.7755C88.155 50.2437 90.1819 50.6697 91.8563 51.5216C93.5307 52.3441 94.7792 53.4604 95.6017 54.8704C96.4536 56.2511 96.8795 57.7933 96.8795 59.4971C96.8795 60.9952 96.5123 62.4493 95.778 63.8593C95.0729 65.24 93.8832 66.4003 92.2088 67.3404C90.5638 68.2804 88.4194 68.7504 85.7755 68.7504H80.6642ZM85.7755 63.9915C87.3325 63.9915 88.5222 63.595 89.3447 62.8018C90.1672 61.9793 90.5785 60.8777 90.5785 59.4971C90.5785 58.1164 90.1672 57.0295 89.3447 56.2364C88.5222 55.4138 87.3325 55.0026 85.7755 55.0026H80.6642V63.9915H85.7755ZM124.165 68.4419C124.165 69.2938 124.106 70.087 123.989 70.8214H106.187C106.334 72.4077 106.922 73.6855 107.95 74.6549C108.978 75.6243 110.285 76.109 111.871 76.109C113.105 76.109 114.089 75.874 114.824 75.404C115.558 74.934 116.16 74.2877 116.63 73.4652H123.328C122.623 75.7858 121.257 77.6806 119.23 79.1494C117.203 80.6181 114.75 81.3525 111.871 81.3525C109.551 81.3525 107.48 80.8385 105.658 79.8103C103.837 78.7528 102.412 77.284 101.384 75.404C100.356 73.4945 99.8421 71.2767 99.8421 68.7504C99.8421 66.2241 100.356 64.0209 101.384 62.1409C102.412 60.2608 103.837 58.8067 105.658 57.7786C107.509 56.7504 109.61 56.2364 111.96 56.2364C114.31 56.2364 116.395 56.7358 118.217 57.7345C120.067 58.7333 121.521 60.158 122.579 62.0087C123.636 63.83 124.165 65.9744 124.165 68.4419ZM117.732 66.8116C117.644 65.1959 117.042 63.9034 115.925 62.934C114.838 61.9646 113.487 61.4799 111.871 61.4799C110.373 61.4799 109.095 61.9646 108.038 62.934C107.01 63.9034 106.393 65.1959 106.187 66.8116H117.732ZM135.27 60.9071C136.034 59.4383 137.018 58.2927 138.222 57.4701C139.456 56.6476 140.852 56.2364 142.408 56.2364V62.5815H140.866C139.016 62.5815 137.62 63.0515 136.68 63.9915C135.74 64.9022 135.27 66.4885 135.27 68.7504V81H129.057V56.5889H135.27V60.9071ZM157.14 56.2364C160.107 56.2364 162.589 56.9561 164.586 58.3955C166.584 59.8349 167.921 61.8765 168.596 64.5203H161.899C161.517 63.5803 160.929 62.8459 160.136 62.3171C159.343 61.759 158.344 61.4799 157.14 61.4799C155.348 61.4799 153.938 62.1409 152.91 63.4628C151.911 64.7553 151.411 66.5325 151.411 68.7944C151.411 71.0564 151.911 72.8483 152.91 74.1702C153.938 75.4627 155.348 76.109 157.14 76.109C158.374 76.109 159.372 75.8593 160.136 75.3599C160.9 74.8605 161.487 74.0821 161.899 73.0245H168.596C167.891 75.5802 166.525 77.6071 164.498 79.1053C162.501 80.6035 160.048 81.3525 157.14 81.3525C154.819 81.3525 152.748 80.8385 150.927 79.8103C149.106 78.7822 147.681 77.3281 146.653 75.448C145.624 73.5386 145.11 71.3208 145.11 68.7944C145.11 66.2681 145.624 64.065 146.653 62.1849C147.681 60.2755 149.106 58.8067 150.927 57.7786C152.748 56.7504 154.819 56.2364 157.14 56.2364ZM195.854 68.4419C195.854 69.2938 195.796 70.087 195.678 70.8214H177.876C178.023 72.4077 178.611 73.6855 179.639 74.6549C180.667 75.6243 181.974 76.109 183.561 76.109C184.794 76.109 185.778 75.874 186.513 75.404C187.247 74.934 187.849 74.2877 188.319 73.4652H195.017C194.312 75.7858 192.946 77.6806 190.919 79.1494C188.892 80.6181 186.439 81.3525 183.561 81.3525C181.24 81.3525 179.169 80.8385 177.348 79.8103C175.526 78.7528 174.102 77.284 173.073 75.404C172.045 73.4945 171.531 71.2767 171.531 68.7504C171.531 66.2241 172.045 64.0209 173.073 62.1409C174.102 60.2608 175.526 58.8067 177.348 57.7786C179.198 56.7504 181.299 56.2364 183.649 56.2364C185.999 56.2364 188.084 56.7358 189.906 57.7345C191.756 58.7333 193.21 60.158 194.268 62.0087C195.326 63.83 195.854 65.9744 195.854 68.4419ZM189.421 66.8116C189.333 65.1959 188.731 63.9034 187.614 62.934C186.528 61.9646 185.176 61.4799 183.561 61.4799C182.062 61.4799 180.785 61.9646 179.727 62.934C178.699 63.9034 178.082 65.1959 177.876 66.8116H189.421ZM214.803 56.2364C216.888 56.2364 218.798 56.7651 220.531 57.8226C222.264 58.8802 223.63 60.3636 224.629 62.2731C225.628 64.1531 226.127 66.3122 226.127 68.7504C226.127 71.1886 225.628 73.377 224.629 75.3158C223.63 77.2253 222.264 78.7087 220.531 79.7662C218.798 80.8238 216.888 81.3525 214.803 81.3525C213.04 81.3525 211.498 80.956 210.176 80.1628C208.883 79.3697 207.811 78.2828 206.959 76.9021V92.6328H200.746V56.5889H206.959V60.3783C207.752 59.0858 208.81 58.0723 210.132 57.338C211.483 56.6036 213.04 56.2364 214.803 56.2364ZM213.393 61.6121C212.276 61.6121 211.219 61.8912 210.22 62.4493C209.251 63.0074 208.457 63.83 207.841 64.9169C207.253 66.0038 206.959 67.2963 206.959 68.7944C206.959 70.2926 207.253 71.5851 207.841 72.672C208.457 73.7589 209.251 74.5814 210.22 75.1396C211.219 75.6977 212.276 75.9768 213.393 75.9768C214.509 75.9768 215.552 75.6977 216.521 75.1396C217.52 74.5814 218.313 73.7589 218.901 72.672C219.517 71.5558 219.826 70.2485 219.826 68.7504C219.826 67.2522 219.517 65.9597 218.901 64.8728C218.313 63.7859 217.52 62.9781 216.521 62.4493C215.552 61.8912 214.509 61.6121 213.393 61.6121ZM243.423 75.8005V81H239.501C237.004 81 235.08 80.4272 233.729 79.2815C232.378 78.1359 231.702 76.2412 231.702 73.5974V61.6562H229.102V56.5889H231.702V50.5522H237.915V56.5889H243.379V61.6562H237.915V73.5974C237.915 74.3905 238.106 74.9633 238.488 75.3158C238.87 75.639 239.531 75.8005 240.471 75.8005H243.423Z" fill="#AA00FF"/>
<path d="M247.591 50.3759C247.591 49.3184 247.959 48.4224 248.693 47.6881C249.427 46.9537 250.309 46.5865 251.337 46.5865C252.394 46.5865 253.29 46.9537 254.025 47.6881C254.759 48.4224 255.126 49.3184 255.126 50.3759C255.126 51.4334 254.759 52.3294 254.025 53.0638C253.29 53.7982 252.394 54.1654 251.337 54.1654C250.309 54.1654 249.427 53.7982 248.693 53.0638C247.959 52.3294 247.591 51.4334 247.591 50.3759ZM254.465 56.5889V81H248.252V56.5889H254.465ZM271.518 61.6562H267.641V81H261.472V61.6562H258.828V56.5889H261.472V55.2229C261.472 52.2853 262.25 50.1409 263.807 48.7896C265.364 47.4384 267.817 46.7627 271.166 46.7627V51.9622C269.873 51.9622 268.963 52.2119 268.434 52.7113C267.905 53.2107 267.641 54.0479 267.641 55.2229V56.5889H271.518V61.6562ZM279.758 56.5889L285.971 73.9499L292.536 56.5889H299.013L283.767 92.5446H277.29L282.357 80.5594L272.796 56.5889H279.758Z" fill="black"/>
</svg>
