<svg width="320" height="132" viewBox="0 0 320 132" fill="none" xmlns="http://www.w3.org/2000/svg">
<path d="M21.0009 45.6979H61.4161V86.4979H21.0009V45.6979Z" fill="white" fill-opacity="0.01"/>
<path d="M38.683 77.9979C46.5882 77.9979 52.9968 71.5284 52.9968 63.5479C52.9968 55.5674 46.5882 49.0979 38.683 49.0979C30.7778 49.0979 24.3693 55.5674 24.3693 63.5479C24.3693 71.5284 30.7778 77.9979 38.683 77.9979Z" fill="#AA00FF" stroke="black" stroke-width="4.2786" stroke-linejoin="round"/>
<path d="M43.447 57.8895C42.228 56.659 40.5441 55.8979 38.684 55.8979C36.824 55.8979 35.14 56.659 33.921 57.8895" stroke="white" stroke-width="4.2786" stroke-linecap="round" stroke-linejoin="round"/>
<path d="M48.974 73.9364L56.1185 81.1489" stroke="black" stroke-width="4.2786" stroke-linecap="round" stroke-linejoin="round"/>
<path d="M80.6646 68.7504V81H74.4516V50.2437H85.7759C88.1553 50.2437 90.1823 50.6697 91.8567 51.5216C93.5311 52.3441 94.7795 53.4603 95.6021 54.8704C96.454 56.251 96.8799 57.7933 96.8799 59.497C96.8799 60.9952 96.5127 62.4493 95.7783 63.8593C95.0733 65.24 93.8836 66.4003 92.2092 67.3403C90.5641 68.2804 88.4197 68.7504 85.7759 68.7504H80.6646ZM85.7759 63.9915C87.3328 63.9915 88.5225 63.5949 89.3451 62.8018C90.1676 61.9793 90.5788 60.8777 90.5788 59.497C90.5788 58.1164 90.1676 57.0295 89.3451 56.2363C88.5225 55.4138 87.3328 55.0026 85.7759 55.0026H80.6646V63.9915H85.7759ZM124.166 68.4419C124.166 69.2938 124.107 70.087 123.989 70.8213H106.188C106.334 72.4076 106.922 73.6855 107.95 74.6549C108.978 75.6243 110.286 76.109 111.872 76.109C113.106 76.109 114.09 75.874 114.824 75.4039C115.558 74.9339 116.161 74.2877 116.631 73.4652H123.328C122.623 75.7858 121.257 77.6806 119.23 79.1493C117.203 80.6181 114.751 81.3525 111.872 81.3525C109.551 81.3525 107.48 80.8384 105.659 79.8103C103.838 78.7528 102.413 77.284 101.385 75.4039C100.357 73.4945 99.8425 71.2767 99.8425 68.7504C99.8425 66.2241 100.357 64.0209 101.385 62.1408C102.413 60.2608 103.838 58.8067 105.659 57.7786C107.51 56.7504 109.61 56.2363 111.96 56.2363C114.31 56.2363 116.396 56.7357 118.217 57.7345C120.068 58.7333 121.522 60.158 122.579 62.0087C123.637 63.8299 124.166 65.9744 124.166 68.4419ZM117.732 66.8116C117.644 65.1959 117.042 63.9034 115.926 62.934C114.839 61.9646 113.487 61.4799 111.872 61.4799C110.374 61.4799 109.096 61.9646 108.038 62.934C107.01 63.9034 106.393 65.1959 106.188 66.8116H117.732ZM135.271 60.9071C136.034 59.4383 137.018 58.2926 138.223 57.4701C139.457 56.6476 140.852 56.2363 142.409 56.2363V62.5815H140.867C139.016 62.5815 137.621 63.0515 136.681 63.9915C135.741 64.9022 135.271 66.4884 135.271 68.7504V81H129.058V56.5889H135.271V60.9071ZM157.14 56.2363C160.107 56.2363 162.589 56.956 164.587 58.3955C166.584 59.8349 167.921 61.8765 168.597 64.5203H161.899C161.517 63.5803 160.93 62.8459 160.136 62.3171C159.343 61.759 158.345 61.4799 157.14 61.4799C155.348 61.4799 153.938 62.1408 152.91 63.4627C151.911 64.7553 151.412 66.5325 151.412 68.7944C151.412 71.0563 151.911 72.8483 152.91 74.1702C153.938 75.4627 155.348 76.109 157.14 76.109C158.374 76.109 159.373 75.8593 160.136 75.3599C160.9 74.8605 161.488 74.082 161.899 73.0245H168.597C167.892 75.5802 166.526 77.6071 164.499 79.1053C162.501 80.6034 160.048 81.3525 157.14 81.3525C154.819 81.3525 152.748 80.8384 150.927 79.8103C149.106 78.7821 147.681 77.328 146.653 75.448C145.625 73.5386 145.111 71.3207 145.111 68.7944C145.111 66.2681 145.625 64.0649 146.653 62.1849C147.681 60.2755 149.106 58.8067 150.927 57.7786C152.748 56.7504 154.819 56.2363 157.14 56.2363ZM195.855 68.4419C195.855 69.2938 195.796 70.087 195.678 70.8213H177.877C178.024 72.4076 178.611 73.6855 179.639 74.6549C180.667 75.6243 181.975 76.109 183.561 76.109C184.795 76.109 185.779 75.874 186.513 75.4039C187.248 74.9339 187.85 74.2877 188.32 73.4652H195.017C194.312 75.7858 192.946 77.6806 190.92 79.1493C188.893 80.6181 186.44 81.3525 183.561 81.3525C181.24 81.3525 179.169 80.8384 177.348 79.8103C175.527 78.7528 174.102 77.284 173.074 75.4039C172.046 73.4945 171.532 71.2767 171.532 68.7504C171.532 66.2241 172.046 64.0209 173.074 62.1408C174.102 60.2608 175.527 58.8067 177.348 57.7786C179.199 56.7504 181.299 56.2363 183.649 56.2363C185.999 56.2363 188.085 56.7357 189.906 57.7345C191.757 58.7333 193.211 60.158 194.268 62.0087C195.326 63.8299 195.855 65.9744 195.855 68.4419ZM189.421 66.8116C189.333 65.1959 188.731 63.9034 187.615 62.934C186.528 61.9646 185.177 61.4799 183.561 61.4799C182.063 61.4799 180.785 61.9646 179.727 62.934C178.699 63.9034 178.082 65.1959 177.877 66.8116H189.421ZM214.803 56.2363C216.889 56.2363 218.798 56.7651 220.531 57.8226C222.264 58.8801 223.63 60.3636 224.629 62.273C225.628 64.1531 226.127 66.3122 226.127 68.7504C226.127 71.1885 225.628 73.377 224.629 75.3158C223.63 77.2252 222.264 78.7087 220.531 79.7662C218.798 80.8237 216.889 81.3525 214.803 81.3525C213.04 81.3525 211.498 80.9559 210.176 80.1628C208.884 79.3697 207.812 78.2828 206.96 76.9021V92.6327H200.747V56.5889H206.96V60.3783C207.753 59.0858 208.81 58.0723 210.132 57.3379C211.484 56.6035 213.04 56.2363 214.803 56.2363ZM213.393 61.6121C212.277 61.6121 211.219 61.8912 210.22 62.4493C209.251 63.0074 208.458 63.8299 207.841 64.9168C207.253 66.0037 206.96 67.2963 206.96 68.7944C206.96 70.2926 207.253 71.5851 207.841 72.672C208.458 73.7589 209.251 74.5814 210.22 75.1396C211.219 75.6977 212.277 75.9768 213.393 75.9768C214.509 75.9768 215.552 75.6977 216.521 75.1396C217.52 74.5814 218.313 73.7589 218.901 72.672C219.518 71.5557 219.826 70.2485 219.826 68.7504C219.826 67.2522 219.518 65.9597 218.901 64.8728C218.313 63.7859 217.52 62.978 216.521 62.4493C215.552 61.8912 214.509 61.6121 213.393 61.6121ZM243.423 75.8005V81H239.502C237.005 81 235.081 80.4272 233.729 79.2815C232.378 78.1359 231.702 76.2411 231.702 73.5973V61.6561H229.103V56.5889H231.702V50.5522H237.915V56.5889H243.379V61.6561H237.915V73.5973C237.915 74.3905 238.106 74.9633 238.488 75.3158C238.87 75.6389 239.531 75.8005 240.471 75.8005H243.423Z" fill="#AA00FF"/>
<path d="M247.592 50.3759C247.592 49.3184 247.959 48.4224 248.693 47.688C249.428 46.9536 250.309 46.5864 251.337 46.5864C252.395 46.5864 253.291 46.9536 254.025 47.688C254.759 48.4224 255.127 49.3184 255.127 50.3759C255.127 51.4334 254.759 52.3294 254.025 53.0638C253.291 53.7982 252.395 54.1654 251.337 54.1654C250.309 54.1654 249.428 53.7982 248.693 53.0638C247.959 52.3294 247.592 51.4334 247.592 50.3759ZM254.466 56.5889V81H248.253V56.5889H254.466ZM271.519 61.6561H267.641V81H261.472V61.6561H258.829V56.5889H261.472V55.2229C261.472 52.2853 262.251 50.1409 263.808 48.7896C265.365 47.4383 267.818 46.7627 271.166 46.7627V51.9622C269.874 51.9622 268.963 52.2119 268.434 52.7113C267.906 53.2107 267.641 54.0479 267.641 55.2229V56.5889H271.519V61.6561ZM279.758 56.5889L285.971 73.9498L292.536 56.5889H299.014L283.768 92.5446H277.29L282.358 80.5594L272.796 56.5889H279.758Z" fill="black"/>
</svg>
