<svg width="196" height="46" viewBox="0 0 196 46" fill="none" xmlns="http://www.w3.org/2000/svg">
<path d="M0 8.82388H28.3522V37.1761H0V8.82388Z" fill="white" fill-opacity="0.01"/>
<path d="M12.4042 31.2694C17.9499 31.2694 22.4456 26.7737 22.4456 21.228C22.4456 15.6823 17.9499 11.1866 12.4042 11.1866C6.85851 11.1866 2.36279 15.6823 2.36279 21.228C2.36279 26.7737 6.85851 31.2694 12.4042 31.2694Z" fill="#AA00FF" stroke="black" stroke-width="2.98735" stroke-linejoin="round"/>
<path d="M15.7454 17.296C14.8903 16.4409 13.709 15.912 12.4041 15.912C11.0993 15.912 9.91792 16.4409 9.06274 17.296" stroke="white" stroke-width="2.98735" stroke-linecap="round" stroke-linejoin="round"/>
<path d="M19.6233 28.4471L24.6353 33.4591" stroke="black" stroke-width="2.98735" stroke-linecap="round" stroke-linejoin="round"/>
<path d="M41.7923 25.4472V34H37.4544V12.5257H45.3611C47.0224 12.5257 48.4376 12.8231 49.6067 13.4179C50.7758 13.9922 51.6475 14.7716 52.2218 15.7561C52.8166 16.7201 53.114 17.7969 53.114 18.9865C53.114 20.0325 52.8576 21.0478 52.3448 22.0323C51.8526 22.9962 51.0219 23.8064 49.8528 24.4627C48.7043 25.119 47.207 25.4472 45.3611 25.4472H41.7923ZM45.3611 22.1245C46.4481 22.1245 47.2788 21.8477 47.8531 21.2939C48.4274 20.7196 48.7145 19.9505 48.7145 18.9865C48.7145 18.0225 48.4274 17.2636 47.8531 16.7098C47.2788 16.1355 46.4481 15.8484 45.3611 15.8484H41.7923V22.1245H45.3611ZM72.165 25.2319C72.165 25.8267 72.124 26.3804 72.0419 26.8932H59.6127C59.7152 28.0007 60.1254 28.8929 60.8433 29.5698C61.5612 30.2466 62.4739 30.585 63.5814 30.585C64.4429 30.585 65.13 30.421 65.6427 30.0928C66.1555 29.7646 66.5759 29.3134 66.9041 28.7391H71.5804C71.0882 30.3594 70.1345 31.6823 68.7193 32.7079C67.304 33.7334 65.5914 34.2461 63.5814 34.2461C61.9611 34.2461 60.5151 33.8872 59.2435 33.1693C57.9719 32.431 56.9771 31.4054 56.2593 30.0928C55.5414 28.7596 55.1825 27.2111 55.1825 25.4472C55.1825 23.6833 55.5414 22.1451 56.2593 20.8324C56.9771 19.5197 57.9719 18.5045 59.2435 17.7866C60.5357 17.0688 62.0021 16.7098 63.643 16.7098C65.2838 16.7098 66.74 17.0585 68.0116 17.7559C69.3038 18.4532 70.3191 19.448 71.0574 20.7401C71.7958 22.0117 72.165 23.509 72.165 25.2319ZM67.6732 24.0935C67.6117 22.9655 67.1912 22.063 66.4118 21.3862C65.653 20.7093 64.7095 20.3709 63.5814 20.3709C62.5354 20.3709 61.6432 20.7093 60.9048 21.3862C60.187 22.063 59.7563 22.9655 59.6127 24.0935H67.6732ZM79.9186 19.971C80.4519 18.9455 81.1389 18.1456 81.9799 17.5713C82.8413 16.997 83.8155 16.7098 84.9026 16.7098V21.1401H83.8258C82.5336 21.1401 81.5594 21.4682 80.9031 22.1245C80.2467 22.7604 79.9186 23.8679 79.9186 25.4472V34H75.5807V16.956H79.9186V19.971ZM95.1881 16.7098C97.2596 16.7098 98.9927 17.2123 100.387 18.2173C101.782 19.2223 102.715 20.6478 103.187 22.4937H98.5108C98.2441 21.8374 97.8339 21.3246 97.2801 20.9555C96.7264 20.5658 96.029 20.3709 95.1881 20.3709C93.937 20.3709 92.9525 20.8324 92.2346 21.7554C91.5373 22.6578 91.1886 23.8987 91.1886 25.478C91.1886 27.0573 91.5373 28.3084 92.2346 29.2314C92.9525 30.1338 93.937 30.585 95.1881 30.585C96.0495 30.585 96.7469 30.4107 97.2801 30.062C97.8134 29.7134 98.2236 29.1698 98.5108 28.4315H103.187C102.695 30.2159 101.741 31.6311 100.326 32.6771C98.9312 33.7231 97.2186 34.2461 95.1881 34.2461C93.5678 34.2461 92.1218 33.8872 90.8502 33.1693C89.5785 32.4515 88.5838 31.4362 87.8659 30.1236C87.1481 28.7904 86.7891 27.2419 86.7891 25.478C86.7891 23.7141 87.1481 22.1758 87.8659 20.8632C88.5838 19.53 89.5785 18.5045 90.8502 17.7866C92.1218 17.0688 93.5678 16.7098 95.1881 16.7098ZM122.219 25.2319C122.219 25.8267 122.178 26.3804 122.096 26.8932H109.667C109.769 28.0007 110.179 28.8929 110.897 29.5698C111.615 30.2466 112.528 30.585 113.635 30.585C114.497 30.585 115.184 30.421 115.697 30.0928C116.209 29.7646 116.63 29.3134 116.958 28.7391H121.634C121.142 30.3594 120.188 31.6823 118.773 32.7079C117.358 33.7334 115.645 34.2461 113.635 34.2461C112.015 34.2461 110.569 33.8872 109.297 33.1693C108.026 32.431 107.031 31.4054 106.313 30.0928C105.595 28.7596 105.236 27.2111 105.236 25.4472C105.236 23.6833 105.595 22.1451 106.313 20.8324C107.031 19.5197 108.026 18.5045 109.297 17.7866C110.59 17.0688 112.056 16.7098 113.697 16.7098C115.338 16.7098 116.794 17.0585 118.066 17.7559C119.358 18.4532 120.373 19.448 121.111 20.7401C121.85 22.0117 122.219 23.509 122.219 25.2319ZM117.727 24.0935C117.666 22.9655 117.245 22.063 116.466 21.3862C115.707 20.7093 114.763 20.3709 113.635 20.3709C112.589 20.3709 111.697 20.7093 110.959 21.3862C110.241 22.063 109.81 22.9655 109.667 24.0935H117.727ZM135.449 16.7098C136.905 16.7098 138.238 17.079 139.448 17.8174C140.658 18.5558 141.612 19.5915 142.309 20.9247C143.007 22.2374 143.355 23.7449 143.355 25.4472C143.355 27.1496 143.007 28.6776 142.309 30.0313C141.612 31.3644 140.658 32.4002 139.448 33.1386C138.238 33.8769 136.905 34.2461 135.449 34.2461C134.218 34.2461 133.141 33.9692 132.218 33.4155C131.316 32.8617 130.567 32.1028 129.972 31.1388V42.1221H125.635V16.956H129.972V19.6018C130.526 18.6993 131.265 17.9917 132.188 17.479C133.131 16.9662 134.218 16.7098 135.449 16.7098ZM134.464 20.4632C133.685 20.4632 132.946 20.6581 132.249 21.0478C131.572 21.4375 131.019 22.0117 130.588 22.7706C130.178 23.5295 129.972 24.432 129.972 25.478C129.972 26.524 130.178 27.4265 130.588 28.1853C131.019 28.9442 131.572 29.5185 132.249 29.9082C132.946 30.2979 133.685 30.4927 134.464 30.4927C135.244 30.4927 135.972 30.2979 136.649 29.9082C137.346 29.5185 137.9 28.9442 138.31 28.1853C138.741 27.4059 138.956 26.4932 138.956 25.4472C138.956 24.4012 138.741 23.4987 138.31 22.7399C137.9 21.981 137.346 21.4169 136.649 21.0478C135.972 20.6581 135.244 20.4632 134.464 20.4632ZM155.432 30.3697V34H152.693C150.95 34 149.607 33.6 148.663 32.8001C147.72 32.0002 147.248 30.6773 147.248 28.8314V20.494H145.433V16.956H147.248V12.7411H151.586V16.956H155.401V20.494H151.586V28.8314C151.586 29.3852 151.719 29.7851 151.986 30.0313C152.252 30.2569 152.714 30.3697 153.37 30.3697H155.432Z" fill="#AA00FF"/>
<path d="M158.342 12.618C158.342 11.8797 158.598 11.2541 159.111 10.7413C159.624 10.2286 160.239 9.97221 160.957 9.97221C161.695 9.97221 162.321 10.2286 162.834 10.7413C163.347 11.2541 163.603 11.8797 163.603 12.618C163.603 13.3564 163.347 13.982 162.834 14.4947C162.321 15.0075 161.695 15.2639 160.957 15.2639C160.239 15.2639 159.624 15.0075 159.111 14.4947C158.598 13.982 158.342 13.3564 158.342 12.618ZM163.141 16.956V34H158.804V16.956H163.141ZM175.048 20.494H172.341V34H168.034V20.494H166.188V16.956H168.034V16.0022C168.034 13.9512 168.577 12.454 169.664 11.5105C170.751 10.567 172.464 10.0953 174.802 10.0953V13.7256C173.9 13.7256 173.264 13.8999 172.895 14.2486C172.525 14.5973 172.341 15.1818 172.341 16.0022V16.956H175.048V20.494ZM180.801 16.956L185.139 29.0775L189.723 16.956H194.245L183.6 42.0605H179.078L182.616 33.6923L175.94 16.956H180.801Z" fill="black"/>
</svg>
