<svg xmlns="http://www.w3.org/2000/svg" width="97" height="97" viewBox="0 0 97 97" fill="none">
  <path d="M82.45 0H14.55C6.51426 0 0 6.51426 0 14.55V82.45C0 90.4857 6.51426 97 14.55 97H82.45C90.4857 97 97 90.4857 97 82.45V14.55C97 6.51426 90.4857 0 82.45 0Z" fill="#1877F2"/>
  <path d="M67.3695 62.5195L69.5293 48.5H56.0781V39.4062C56.0781 35.5793 57.9537 31.8281 63.9783 31.8281H70.0977V19.8926C70.0977 19.8926 64.5467 18.9453 59.242 18.9453C48.159 18.9453 40.9219 25.652 40.9219 37.8148V48.5H28.6074V62.5195H40.9219V97H56.0781V62.5195H67.3695Z" fill="white"/>
</svg>