<svg width="68" height="68" fill="none" xmlns="http://www.w3.org/2000/svg"><rect width="68" height="68" rx="3.505" fill="#4267B2" fill-opacity=".3"/><path d="M57.484 33.793c0-12.86-10.362-23.278-23.134-23.278-12.78 0-23.134 10.418-23.134 23.278 0 11.615 8.457 21.246 19.52 22.99v-16.26H24.86v-6.729h5.875v-5.131c0-5.832 3.448-9.053 8.734-9.053 2.532 0 5.182.454 5.182.454v5.727H41.73c-2.868 0-3.765 1.797-3.765 3.637v4.365h6.416L43.35 40.52h-5.385v16.261c11.054-1.744 19.52-11.375 19.52-22.99Z" fill="#4267B2"/></svg>