<svg xmlns="http://www.w3.org/2000/svg" width="97" height="97" viewBox="0 0 97 97" fill="none">
  <rect x="0.5" y="0.5" width="96" height="96" rx="14.5" fill="white"/>
  <path d="M79.4939 41.374H76.9523V41.2431H48.5538V53.8646H66.3865C63.7849 61.2119 56.7941 66.4861 48.5538 66.4861C38.0985 66.4861 29.6215 58.0092 29.6215 47.5538C29.6215 37.0985 38.0985 28.6215 48.5538 28.6215C53.38 28.6215 57.7707 30.4422 61.1138 33.4161L70.0388 24.4911C64.4033 19.239 56.8651 16 48.5538 16C31.1282 16 17 30.1282 17 47.5538C17 64.9794 31.1282 79.1077 48.5538 79.1077C65.9794 79.1077 80.1077 64.9794 80.1077 47.5538C80.1077 45.4381 79.8899 43.3729 79.4939 41.374Z" fill="#FFC107"/>
  <path d="M20.6382 32.8671L31.0052 40.47C33.8103 33.525 40.6039 28.6215 48.5539 28.6215C53.38 28.6215 57.7707 30.4422 61.1139 33.4161L70.0389 24.4911C64.4034 19.239 56.8651 16 48.5539 16C36.434 16 25.9235 22.8424 20.6382 32.8671Z" fill="#FF3D00"/>
  <path d="M48.5538 79.1077C56.7042 79.1077 64.1099 75.9886 69.7091 70.9163L59.9432 62.6523C56.7752 65.052 52.8372 66.4861 48.5538 66.4861C40.3467 66.4861 33.378 61.2529 30.7527 53.9498L20.463 61.8777C25.6852 72.0964 36.2904 79.1077 48.5538 79.1077Z" fill="#4CAF50"/>
  <path d="M79.4939 41.374H76.9523V41.2431H48.5538V53.8646H66.3865C65.137 57.3939 62.8666 60.4373 59.9385 62.6539C59.94 62.6523 59.9416 62.6523 59.9432 62.6508L69.7091 70.9147C69.0181 71.5426 80.1077 63.3308 80.1077 47.5538C80.1077 45.4382 79.8899 43.373 79.4939 41.374Z" fill="#1976D2"/>
  <rect x="0.5" y="0.5" width="96" height="96" rx="14.5" stroke="#C6C6C6"/>
</svg>