<svg xmlns="http://www.w3.org/2000/svg" width="97" height="97" viewBox="0 0 97 97" fill="none">
  <path d="M82.45 0H14.55C6.51426 0 0 6.51426 0 14.55V82.45C0 90.4857 6.51426 97 14.55 97H82.45C90.4857 97 97 90.4857 97 82.45V14.55C97 6.51426 90.4857 0 82.45 0Z" fill="black"/>
  <path d="M82.45 0H14.55C6.51426 0 0 6.51426 0 14.55V82.45C0 90.4857 6.51426 97 14.55 97H82.45C90.4857 97 97 90.4857 97 82.45V14.55C97 6.51426 90.4857 0 82.45 0Z" fill="url(#paint0_radial_1819_1292)"/>
  <path d="M82.45 0H14.55C6.51426 0 0 6.51426 0 14.55V82.45C0 90.4857 6.51426 97 14.55 97H82.45C90.4857 97 97 90.4857 97 82.45V14.55C97 6.51426 90.4857 0 82.45 0Z" fill="url(#paint1_linear_1819_1292)"/>
  <path d="M62.3301 19.3242H34.6699C26.1947 19.3242 19.3242 26.1947 19.3242 34.6699V62.3301C19.3242 70.8053 26.1947 77.6758 34.6699 77.6758H62.3301C70.8053 77.6758 77.6758 70.8053 77.6758 62.3301V34.6699C77.6758 26.1947 70.8053 19.3242 62.3301 19.3242Z" stroke="white" stroke-width="5"/>
  <path d="M48.5 62.1406C56.0335 62.1406 62.1406 56.0335 62.1406 48.5C62.1406 40.9665 56.0335 34.8594 48.5 34.8594C40.9665 34.8594 34.8594 40.9665 34.8594 48.5C34.8594 56.0335 40.9665 62.1406 48.5 62.1406Z" stroke="white" stroke-width="5"/>
  <path d="M65.7402 32.3965C66.368 32.3965 66.877 31.8876 66.877 31.2598C66.877 30.632 66.368 30.1231 65.7402 30.1231C65.1124 30.1231 64.6035 30.632 64.6035 31.2598C64.6035 31.8876 65.1124 32.3965 65.7402 32.3965Z" stroke="white" stroke-width="5"/>
  <defs>
    <radialGradient id="paint0_radial_1819_1292" cx="0" cy="0" r="1" gradientUnits="userSpaceOnUse" gradientTransform="translate(38.8 97) scale(97)">
      <stop offset="0.1" stop-color="#FFDD55"/>
      <stop offset="0.5" stop-color="#FF543E"/>
      <stop offset="1" stop-color="#C837AB"/>
    </radialGradient>
    <linearGradient id="paint1_linear_1819_1292" x1="0" y1="0" x2="19.4" y2="97" gradientUnits="userSpaceOnUse">
      <stop offset="0.1" stop-color="#3771C8"/>
      <stop offset="0.5" stop-color="#6600FF" stop-opacity="0"/>
    </linearGradient>
  </defs>
</svg>