<svg xmlns="http://www.w3.org/2000/svg" width="97" height="97" viewBox="0 0 97 97" fill="none">
  <rect width="97" height="97" rx="18" fill="#FF318D" fill-opacity="0.3"/>
  <path d="M48.8181 23.4659C57.0523 23.4659 58.0274 23.5014 61.2657 23.6437C64.2752 23.7741 65.9004 24.2721 66.9839 24.6871C68.4164 25.2325 69.4517 25.8964 70.5231 26.9517C71.6066 28.0188 72.2687 29.0266 72.8224 30.4375C73.2438 31.5046 73.7494 33.1171 73.8818 36.0693C74.0263 39.2706 74.0624 40.231 74.0624 48.329C74.0624 56.4388 74.0263 57.3992 73.8818 60.5886C73.7494 63.5527 73.2438 65.1534 72.8224 66.2205C72.2687 67.6314 71.5945 68.6511 70.5231 69.7063C69.4397 70.7734 68.4164 71.4255 66.9839 71.9709C65.9004 72.3859 64.2632 72.8838 61.2657 73.0143C58.0153 73.1565 57.0402 73.1921 48.8181 73.1921C40.5839 73.1921 39.6088 73.1565 36.3705 73.0143C33.3609 72.8838 31.7357 72.3859 30.6523 71.9709C29.2197 71.4255 28.1844 70.7615 27.113 69.7063C26.0295 68.6392 25.3674 67.6314 24.8137 66.2205C24.3923 65.1534 23.8867 63.5409 23.7543 60.5886C23.6098 57.3874 23.5737 56.427 23.5737 48.329C23.5737 40.2191 23.6098 39.2587 23.7543 36.0693C23.8867 33.1052 24.3923 31.5046 24.8137 30.4375C25.3674 29.0266 26.0416 28.0069 27.113 26.9517C28.1964 25.8846 29.2197 25.2325 30.6523 24.6871C31.7357 24.2721 33.3729 23.7741 36.3705 23.6437C39.6088 23.5014 40.5839 23.4659 48.8181 23.4659ZM48.8181 18C40.4514 18 39.4041 18.0356 36.1176 18.1778C32.8432 18.3201 30.5921 18.8418 28.6419 19.5888C26.6074 20.3713 24.8859 21.4028 23.1765 23.0983C21.455 24.7819 20.4077 26.4774 19.6131 28.4693C18.8547 30.4019 18.325 32.6072 18.1806 35.8322C18.0361 39.0809 18 40.1124 18 48.3527C18 56.593 18.0361 57.6245 18.1806 60.8613C18.325 64.0863 18.8547 66.3035 19.6131 68.2242C20.4077 70.228 21.455 71.9235 23.1765 73.6071C24.8859 75.2907 26.6074 76.3341 28.6298 77.1047C30.5921 77.8517 32.8312 78.3734 36.1056 78.5157C39.3921 78.658 40.4394 78.6935 48.806 78.6935C57.1726 78.6935 58.22 78.658 61.5064 78.5157C64.7808 78.3734 67.032 77.8517 68.9822 77.1047C71.0047 76.3341 72.7261 75.2907 74.4356 73.6071C76.145 71.9235 77.2044 70.228 77.9869 68.2361C78.7453 66.3035 79.275 64.0981 79.4194 60.8732C79.5639 57.6363 79.6 56.6048 79.6 48.3645C79.6 40.1243 79.5639 39.0927 79.4194 35.8559C79.275 32.6309 78.7453 30.4138 77.9869 28.493C77.2285 26.4774 76.1811 24.7819 74.4596 23.0983C72.7502 21.4147 71.0287 20.3713 69.0063 19.6006C67.044 18.8537 64.8049 18.332 61.5305 18.1897C58.232 18.0356 57.1847 18 48.8181 18Z" fill="#D28AAA"/>
  <path d="M48.8182 32.7613C40.0784 32.7613 32.9878 39.7448 32.9878 48.3527C32.9878 56.9605 40.0784 63.944 48.8182 63.944C57.558 63.944 64.6485 56.9605 64.6485 48.3527C64.6485 39.7448 57.558 32.7613 48.8182 32.7613ZM48.8182 58.4663C43.1481 58.4663 38.5495 53.9371 38.5495 48.3527C38.5495 42.7682 43.1481 38.239 48.8182 38.239C54.4882 38.239 59.0868 42.7682 59.0868 48.3527C59.0868 53.9371 54.4882 58.4663 48.8182 58.4663Z" fill="#D28AAA"/>
  <path d="M68.9703 32.1446C68.9703 34.1603 67.309 35.7846 65.2745 35.7846C63.228 35.7846 61.5788 34.1484 61.5788 32.1446C61.5788 30.129 63.2401 28.5047 65.2745 28.5047C67.309 28.5047 68.9703 30.1409 68.9703 32.1446Z" fill="#D28AAA"/>
</svg>