<svg xmlns="http://www.w3.org/2000/svg" width="97" height="97" viewBox="0 0 97 97" fill="none">
  <path d="M82.45 0H14.55C6.51426 0 0 6.51426 0 14.55V82.45C0 90.4857 6.51426 97 14.55 97H82.45C90.4857 97 97 90.4857 97 82.45V14.55C97 6.51426 90.4857 0 82.45 0Z" fill="#1DA1F2"/>
  <path d="M82.791 28.7969C80.545 30.2867 77.9081 31.0778 75.2129 31.0703C78.0944 29.3729 80.2519 26.676 81.2754 23.4922C78.8869 25.5114 75.877 26.6485 72.75 26.7129C70.6883 24.6013 67.9974 23.2153 65.0812 22.7629C62.1649 22.3105 59.1805 22.816 56.576 24.2037C53.9715 25.5914 51.8872 27.7863 50.636 30.4591C49.3848 33.1319 49.0342 36.1384 49.6367 39.0273C44.3308 38.7472 39.1431 37.3543 34.4104 34.939C29.6778 32.5237 25.506 29.1401 22.166 25.0078C20.5316 27.9653 20.0531 31.4241 20.8231 34.7142C21.5931 38.0042 23.5569 40.8914 26.334 42.8164C24.2381 42.846 22.1636 42.3922 20.2715 41.4902C20.3224 44.542 21.3954 47.4885 23.3188 49.8584C25.2422 52.2283 27.9049 53.8847 30.8809 54.5625C28.8999 55.0798 26.8278 55.1446 24.8184 54.752C25.6852 57.4555 27.374 59.8212 29.6494 61.5192C31.9248 63.2173 34.6733 64.163 37.5117 64.2246C31.5169 67.8613 24.6306 69.7632 17.6191 69.7188C23.4913 73.5524 30.3122 75.6811 37.3224 75.8681C44.3327 76.055 51.2573 74.2928 57.3255 70.7776C63.3936 67.2624 68.3672 62.1322 71.6925 55.9579C75.0178 49.7837 76.5644 42.8077 76.1602 35.8066C78.6601 33.7622 80.8885 31.4065 82.791 28.7969Z" fill="white"/>
</svg>