<svg width="97" height="97" fill="none" xmlns="http://www.w3.org/2000/svg"><rect width="97" height="97" rx="5" fill="#1DA1F2" fill-opacity=".3"/><path d="M37.379 73.296c23.24 0 35.954-18.968 35.954-35.411 0-.533-.012-1.078-.036-1.612A25.454 25.454 0 0 0 79.6 29.83a25.216 25.216 0 0 1-7.254 1.956 12.55 12.55 0 0 0 5.558-6.884 25.641 25.641 0 0 1-8.023 3.02 12.715 12.715 0 0 0-7.17-3.757 12.824 12.824 0 0 0-8.014 1.31 12.543 12.543 0 0 0-5.553 5.837 12.291 12.291 0 0 0-.807 7.96A36.325 36.325 0 0 1 33.913 35.5a35.796 35.796 0 0 1-11.619-9.223 12.298 12.298 0 0 0-1.38 9.066 12.462 12.462 0 0 0 5.29 7.543 12.8 12.8 0 0 1-5.726-1.552v.154a12.327 12.327 0 0 0 2.856 7.887 12.668 12.668 0 0 0 7.284 4.318c-1.858.501-3.81.574-5.701.213a12.48 12.48 0 0 0 4.494 6.186 12.79 12.79 0 0 0 7.306 2.465 25.595 25.595 0 0 1-15.697 5.332 25.718 25.718 0 0 1-3.02-.183 36.254 36.254 0 0 0 19.379 5.591Z" fill="#1DA1F2"/></svg>